<?xml version="1.0" encoding="utf-8"?>
<!-- Generator: Adobe Illustrator 16.0.0, SVG Export Plug-In . SVG Version: 6.00 Build 0)  -->
<!DOCTYPE svg PUBLIC "-//W3C//DTD SVG 1.1//EN" "http://www.w3.org/Graphics/SVG/1.1/DTD/svg11.dtd">
<svg version="1.1" id="图层_1" xmlns="http://www.w3.org/2000/svg" xmlns:xlink="http://www.w3.org/1999/xlink" x="0px" y="0px"
	 width="512px" height="512px" viewBox="0 0 512 512" enable-background="new 0 0 512 512" xml:space="preserve">
<path fill="#F4EA2A" d="M216.629,0L9.11,108.367l1.854,3.39l-2.136-0.441v333.188l279.481,65.148l214.864-116.613V54.466L216.629,0z
	 M28.99,115.606L218.977,16.49l259.089,51.2L287.603,170.602L29.007,115.606H28.99z M23.658,432.869V129.465l250.651,53.177v307.2
	L23.676,432.869H23.658z"/>
<g>
	<path opacity="0.8" fill="#2CD12C" d="M103.944,345.794c-6.706,2.395-15.168,3.007-25.387,1.841
		c-13.15-1.501-23.136-6.627-29.958-15.379c-6.823-8.753-9.485-19.685-7.989-32.798c1.574-13.787,7.172-24.576,16.796-32.365
		c9.624-7.788,21.255-10.904,34.893-9.348c8.528,0.974,15.541,2.896,21.036,5.77l-2.052,17.977
		c-5.505-4.129-11.995-6.62-19.471-7.473c-8.529-0.974-15.659,0.972-21.39,5.835c-5.731,4.865-9.099,11.693-10.102,20.484
		c-0.978,8.566,0.658,15.737,4.909,21.513c4.25,5.776,10.509,9.135,18.774,10.078c7.777,0.888,15.073-0.182,21.89-3.211
		L103.944,345.794z"/>
	<path opacity="0.8" fill="#2CD12C" d="M117.533,328.278c6.36,6.625,14.012,10.447,22.954,11.468
		c5.072,0.579,8.984,0.141,11.739-1.314c2.754-1.455,4.288-3.554,4.601-6.297c0.27-2.367-0.489-4.718-2.278-7.055
		c-1.789-2.335-6.816-5.802-15.083-10.399c-12.978-7.342-18.836-16.536-17.576-27.582c0.926-8.115,4.735-14.065,11.429-17.849
		c6.692-3.784,15.13-5.096,25.312-3.934c8.528,0.974,15.559,2.898,21.092,5.776l-1.994,17.47c-5.407-4.65-12.036-7.426-19.889-8.321
		c-4.584-0.523-8.343-0.104-11.275,1.253c-2.934,1.359-4.561,3.446-4.883,6.265c-0.257,2.255,0.444,4.438,2.107,6.55
		c1.662,2.111,6.009,5.206,13.042,9.281c8.254,4.709,13.77,9.316,16.548,13.82c2.778,4.504,3.842,9.612,3.19,15.322
		c-0.957,8.379-4.654,14.427-11.091,18.145c-6.438,3.718-15.124,4.952-26.057,3.704c-9.995-1.141-18-3.689-24.018-7.649
		L117.533,328.278z"/>
	<path opacity="0.8" fill="#2CD12C" d="M270.218,279.537l-40.284,83.835l-21.021-2.399l-19.96-90.711l20.063,2.29l11.835,63.864
		c0.591,3.15,0.847,6.091,0.763,8.822l0.338,0.038c0.618-2.745,1.593-5.622,2.926-8.629l25.897-59.329L270.218,279.537z"/>
</g>
</svg>
