<?xml version="1.0" standalone="no"?><!DOCTYPE svg PUBLIC "-//W3C//DTD SVG 1.1//EN" "http://www.w3.org/Graphics/SVG/1.1/DTD/svg11.dtd"><svg t="1517884194615" class="icon" style="" viewBox="0 0 1024 1024" version="1.1" xmlns="http://www.w3.org/2000/svg" p-id="1230" xmlns:xlink="http://www.w3.org/1999/xlink" width="200" height="200"><defs><style type="text/css"></style></defs><path d="M446.122667 721.92a39.253333 39.253333 0 0 0 35.669333-36.010667v-81.066666c0-7.509333 8.704-10.752 8.704-10.752l76.629333-24.917334s8.533333-3.072 8.533334 5.12v65.024a37.205333 37.205333 0 0 0-21.845334-2.901333 40.448 40.448 0 0 0-37.205333 35.669333c0 17.066667 17.066667 28.16 37.205333 25.429334a40.277333 40.277333 0 0 0 37.205334-35.669334V529.066667a13.994667 13.994667 0 0 0-18.944-14.165334l-86.528 27.477334a27.989333 27.989333 0 0 0-18.944 25.258666v94.890667a29.696 29.696 0 0 0-20.309334-2.389333A41.472 41.472 0 0 0 409.6 697.344c0 17.066667 16.042667 27.648 36.522667 24.576z" fill="#73B0F6" p-id="1231"></path><path d="M912.213333 246.272h-149.504A62.634667 62.634667 0 0 1 699.733333 183.637333V34.133333z" fill="#9ECCF2" p-id="1232"></path><path d="M699.733333 34.133333H167.936a56.32 56.32 0 0 0-56.149333 56.149334v843.434666A56.32 56.32 0 0 0 167.936 989.866667h688.128a56.32 56.32 0 0 0 56.149333-56.149334V246.272z m56.32 830.976H257.194667V366.08h499.029333z m6.314667-618.837333A62.634667 62.634667 0 0 1 699.733333 183.637333V34.133333l212.48 212.138667z" fill="#73B0F6" p-id="1233"></path></svg>