<?xml version="1.0" standalone="no"?><!DOCTYPE svg PUBLIC "-//W3C//DTD SVG 1.1//EN" "http://www.w3.org/Graphics/SVG/1.1/DTD/svg11.dtd"><svg t="1553501627865" class="icon" style="" viewBox="0 0 1024 1024" version="1.1" xmlns="http://www.w3.org/2000/svg" p-id="4403" xmlns:xlink="http://www.w3.org/1999/xlink" width="200" height="200"><defs><style type="text/css"></style></defs><path d="M531.626667 592.64v-102.826667h265.813333v243.2a334.933333 334.933333 0 0 1-112.213333 66.133334 408.32 408.32 0 0 1-148.906667 28.586666 334.506667 334.506667 0 0 1-167.253333-40.106666 256 256 0 0 1-107.093334-115.2A371.626667 371.626667 0 0 1 226.56 512a351.573333 351.573333 0 0 1 40.106667-170.666667A269.226667 269.226667 0 0 1 384 226.56a315.733333 315.733333 0 0 1 146.346667-30.293333 291.84 291.84 0 0 1 177.92 47.786666 213.333333 213.333333 0 0 1 82.346666 131.84l-122.453333 23.04a128 128 0 0 0-49.493333-71.253333 146.773333 146.773333 0 0 0-88.746667-26.026667 167.253333 167.253333 0 0 0-128 51.2 215.893333 215.893333 0 0 0-47.786667 151.893334 238.933333 238.933333 0 0 0 48.213334 162.986666 161.28 161.28 0 0 0 128 54.186667 213.333333 213.333333 0 0 0 77.653333-15.36 265.386667 265.386667 0 0 0 66.986667-36.693333v-77.226667z" p-id="4404" fill="#ffffff"></path></svg>