<svg id="svg" version="1.1" width="400" height="400" viewBox="0 0 400 400" xmlns="http://www.w3.org/2000/svg" xmlns:xlink="http://www.w3.org/1999/xlink" ><g id="svgg"><path id="path0" d="M394.400 397.600 C 394.400 398.933,394.578 400.000,394.800 400.000 C 395.022 400.000,395.200 398.933,395.200 397.600 C 395.200 396.267,395.022 395.200,394.800 395.200 C 394.578 395.200,394.400 396.267,394.400 397.600 " stroke="none" fill="#000000" fill-rule="evenodd"></path><path id="path1" d="M190.400 34.392 C 190.400 34.608,189.950 34.898,189.400 35.036 C 188.850 35.174,188.400 35.445,188.400 35.639 C 188.400 35.832,187.680 36.106,186.800 36.246 C 185.920 36.387,185.200 36.659,185.200 36.851 C 185.200 37.043,184.840 37.200,184.400 37.200 C 183.960 37.200,183.600 37.367,183.600 37.571 C 183.600 37.775,182.610 38.066,181.400 38.217 C 180.190 38.368,179.200 38.631,179.200 38.802 C 179.200 38.972,178.570 39.229,177.800 39.374 C 177.030 39.518,176.400 39.785,176.400 39.967 C 176.400 40.149,175.680 40.413,174.800 40.554 C 173.920 40.694,173.200 40.968,173.200 41.161 C 173.200 41.355,172.727 41.632,172.149 41.777 C 170.809 42.113,168.917 43.994,168.584 45.320 C 168.443 45.882,168.074 46.439,167.764 46.559 C 167.454 46.678,167.200 47.051,167.200 47.387 C 167.200 47.724,167.040 48.000,166.843 48.000 C 166.647 48.000,166.374 48.450,166.236 49.000 C 166.098 49.550,165.822 50.000,165.624 50.000 C 165.426 50.000,165.145 50.540,165.000 51.200 C 164.855 51.860,164.574 52.400,164.376 52.400 C 164.178 52.400,163.902 52.850,163.764 53.400 C 163.626 53.950,163.353 54.400,163.157 54.400 C 162.960 54.400,162.800 54.670,162.800 55.000 C 162.800 55.330,162.634 55.600,162.432 55.600 C 162.229 55.600,161.945 56.140,161.800 56.800 C 161.655 57.460,161.385 58.000,161.200 58.000 C 161.015 58.000,160.745 58.540,160.600 59.200 C 160.455 59.860,160.179 60.400,159.986 60.400 C 159.794 60.400,159.512 61.075,159.360 61.900 C 159.209 62.725,158.916 63.510,158.709 63.644 C 158.127 64.023,158.145 79.715,158.728 79.909 C 158.988 79.996,159.200 80.802,159.200 81.702 C 159.200 83.118,159.441 83.568,161.000 85.062 C 161.990 86.010,162.800 87.040,162.800 87.350 C 162.800 87.661,163.070 88.018,163.400 88.145 C 163.730 88.271,164.000 88.651,164.000 88.987 C 164.000 89.324,164.166 89.600,164.368 89.600 C 164.571 89.600,164.855 90.140,165.000 90.800 C 165.145 91.460,165.429 92.000,165.632 92.000 C 165.834 92.000,166.000 92.456,166.000 93.013 C 166.000 93.569,166.270 94.129,166.600 94.255 C 166.930 94.382,167.200 94.710,167.200 94.984 C 167.200 95.699,168.922 97.458,169.938 97.780 C 170.412 97.931,170.800 98.222,170.800 98.427 C 170.800 98.632,170.986 98.800,171.213 98.800 C 171.440 98.800,173.254 100.420,175.243 102.400 C 177.233 104.380,179.102 106.000,179.397 106.000 C 179.692 106.000,180.008 106.225,180.100 106.500 C 180.343 107.229,210.457 107.229,210.700 106.500 C 210.792 106.225,211.289 106.000,211.805 106.000 C 212.321 106.000,213.013 105.730,213.343 105.400 C 213.673 105.070,214.070 104.800,214.225 104.800 C 214.380 104.800,215.393 103.900,216.476 102.800 C 217.558 101.700,218.692 100.800,218.995 100.800 C 219.298 100.800,219.660 100.440,219.800 100.000 C 219.940 99.560,220.289 99.200,220.576 99.200 C 221.399 99.200,225.144 95.362,225.429 94.226 C 225.571 93.662,225.833 93.200,226.012 93.200 C 226.190 93.200,226.455 92.660,226.600 92.000 C 226.745 91.340,227.029 90.800,227.232 90.800 C 227.434 90.800,227.600 90.524,227.600 90.187 C 227.600 89.851,227.870 89.471,228.200 89.345 C 228.530 89.218,228.800 88.891,228.800 88.618 C 228.800 88.346,229.160 87.707,229.600 87.200 C 230.040 86.693,230.400 86.054,230.400 85.782 C 230.400 85.509,230.670 85.182,231.000 85.055 C 231.330 84.929,231.600 84.564,231.600 84.246 C 231.600 83.927,231.796 83.601,232.036 83.521 C 232.676 83.308,232.769 62.080,232.132 61.683 C 231.874 61.523,231.540 60.899,231.388 60.296 C 231.237 59.693,230.972 59.200,230.800 59.200 C 230.628 59.200,230.374 58.750,230.236 58.200 C 230.098 57.650,229.808 57.200,229.592 57.200 C 229.377 57.200,229.200 56.924,229.200 56.587 C 229.200 56.251,228.941 55.876,228.624 55.754 C 228.308 55.633,227.934 55.008,227.793 54.367 C 227.652 53.725,227.374 53.200,227.176 53.200 C 226.978 53.200,226.702 52.750,226.564 52.200 C 226.426 51.650,226.172 51.200,226.000 51.200 C 225.828 51.200,225.574 50.750,225.436 50.200 C 225.298 49.650,225.008 49.200,224.792 49.200 C 224.577 49.200,224.400 48.930,224.400 48.600 C 224.400 48.270,224.220 48.000,224.000 48.000 C 223.780 48.000,223.600 47.724,223.600 47.387 C 223.600 47.051,223.346 46.678,223.036 46.559 C 222.726 46.439,222.357 45.882,222.216 45.320 C 221.883 43.994,219.991 42.113,218.651 41.777 C 218.073 41.632,217.600 41.361,217.600 41.175 C 217.600 40.989,216.970 40.718,216.200 40.574 C 215.430 40.429,214.800 40.153,214.800 39.960 C 214.800 39.767,214.080 39.494,213.200 39.354 C 212.320 39.213,211.600 38.961,211.600 38.795 C 211.600 38.628,210.610 38.368,209.400 38.217 C 208.190 38.066,207.200 37.775,207.200 37.571 C 207.200 37.367,206.840 37.200,206.400 37.200 C 205.960 37.200,205.600 37.043,205.600 36.851 C 205.600 36.659,204.880 36.387,204.000 36.246 C 203.120 36.106,202.400 35.813,202.400 35.595 C 202.400 35.378,202.124 35.200,201.787 35.200 C 201.451 35.200,201.071 34.930,200.945 34.600 C 200.672 33.889,190.400 33.687,190.400 34.392 M102.000 63.896 C 101.670 64.019,101.296 64.278,101.170 64.471 C 101.043 64.663,100.008 64.931,98.870 65.066 C 97.731 65.201,96.800 65.443,96.800 65.604 C 96.800 65.765,95.900 66.016,94.800 66.162 C 93.700 66.308,92.800 66.582,92.800 66.770 C 92.800 66.959,92.350 67.226,91.800 67.364 C 91.250 67.502,90.800 67.792,90.800 68.008 C 90.800 68.223,90.593 68.400,90.340 68.400 C 90.088 68.400,89.292 68.985,88.571 69.700 C 87.851 70.415,86.807 71.384,86.251 71.852 C 85.694 72.321,85.121 73.176,84.976 73.752 C 84.832 74.329,84.573 74.800,84.401 74.800 C 84.229 74.800,83.971 75.430,83.826 76.200 C 83.682 76.970,83.406 77.600,83.214 77.600 C 83.021 77.600,82.745 78.140,82.600 78.800 C 82.455 79.460,82.185 80.000,82.000 80.000 C 81.815 80.000,81.537 80.585,81.382 81.300 C 81.226 82.015,80.918 82.716,80.696 82.857 C 80.157 83.200,80.146 102.790,80.684 103.143 C 80.900 103.284,81.188 104.105,81.324 104.968 C 81.460 105.830,81.735 106.640,81.936 106.768 C 82.136 106.895,82.426 107.585,82.582 108.300 C 82.737 109.015,83.027 109.600,83.227 109.600 C 83.427 109.600,83.706 110.320,83.846 111.200 C 83.987 112.080,84.245 112.800,84.419 112.800 C 84.594 112.800,84.855 113.340,85.000 114.000 C 85.145 114.660,85.409 115.200,85.586 115.200 C 85.763 115.200,86.032 116.190,86.183 117.400 C 86.334 118.610,86.625 119.600,86.829 119.600 C 87.033 119.600,87.200 120.230,87.200 121.000 C 87.200 121.770,87.357 122.400,87.549 122.400 C 87.741 122.400,88.013 123.120,88.154 124.000 C 88.294 124.880,88.564 125.600,88.754 125.600 C 88.943 125.600,89.213 126.320,89.354 127.200 C 89.494 128.080,89.787 128.800,90.005 128.800 C 90.222 128.800,90.400 129.076,90.400 129.413 C 90.400 129.749,90.670 130.129,91.000 130.255 C 91.330 130.382,91.600 130.728,91.600 131.024 C 91.600 131.319,92.230 132.173,93.000 132.921 C 93.770 133.669,94.400 134.422,94.400 134.595 C 94.400 134.767,94.830 135.306,95.355 135.793 C 95.880 136.280,96.434 137.246,96.587 137.939 C 96.739 138.633,97.015 139.200,97.200 139.200 C 97.385 139.200,97.655 139.740,97.800 140.400 C 97.945 141.060,98.229 141.600,98.432 141.600 C 98.634 141.600,98.800 141.780,98.800 142.000 C 98.800 142.597,102.010 145.600,102.648 145.600 C 102.952 145.600,103.200 145.780,103.200 146.000 C 103.200 146.220,103.404 146.400,103.653 146.400 C 104.340 146.400,107.857 150.119,108.204 151.212 C 108.626 152.541,111.673 155.503,112.948 155.823 C 113.526 155.968,114.000 156.233,114.000 156.412 C 114.000 156.590,114.540 156.855,115.200 157.000 C 115.860 157.145,116.400 157.429,116.400 157.632 C 116.400 157.834,116.672 158.000,117.004 158.000 C 117.336 158.000,117.916 158.360,118.293 158.800 C 118.670 159.240,119.139 159.600,119.336 159.600 C 119.533 159.600,120.392 160.320,121.246 161.200 C 122.100 162.080,122.979 162.800,123.200 162.800 C 123.420 162.800,123.600 162.977,123.600 163.192 C 123.600 163.408,124.050 163.698,124.600 163.836 C 125.150 163.974,125.600 164.224,125.600 164.392 C 125.600 164.560,126.320 164.813,127.200 164.954 C 128.080 165.094,128.800 165.364,128.800 165.553 C 128.800 165.742,129.700 166.016,130.800 166.162 C 131.900 166.308,132.800 166.578,132.800 166.761 C 132.800 166.945,133.546 167.195,134.458 167.317 C 135.369 167.439,136.224 167.710,136.358 167.919 C 136.491 168.128,137.185 168.426,137.900 168.582 C 138.615 168.737,139.200 169.029,139.200 169.232 C 139.200 169.434,139.425 169.603,139.700 169.607 C 140.310 169.615,142.000 171.342,142.000 171.956 C 142.000 172.200,142.178 172.400,142.395 172.400 C 142.613 172.400,142.906 173.120,143.046 174.000 C 143.187 174.880,143.439 175.600,143.606 175.600 C 143.773 175.600,144.031 176.410,144.179 177.400 C 144.328 178.390,144.616 179.200,144.819 179.200 C 145.044 179.200,145.230 212.544,145.295 264.415 C 145.375 329.561,145.512 349.698,145.874 349.922 C 146.135 350.083,146.473 351.157,146.625 352.308 C 146.778 353.458,147.060 354.400,147.252 354.400 C 147.443 354.400,147.600 354.946,147.600 355.613 C 147.600 356.321,147.849 356.921,148.200 357.055 C 148.530 357.182,148.800 357.444,148.800 357.638 C 148.800 358.119,150.097 359.600,150.517 359.600 C 150.704 359.600,151.127 359.870,151.457 360.200 C 151.787 360.530,152.404 360.800,152.829 360.800 C 153.253 360.800,153.600 360.966,153.600 361.168 C 153.600 361.371,154.140 361.655,154.800 361.800 C 155.460 361.945,156.000 362.229,156.000 362.432 C 156.000 362.634,156.270 362.800,156.600 362.800 C 156.930 362.800,157.200 362.968,157.200 363.173 C 157.200 363.378,157.590 363.670,158.066 363.821 C 158.543 363.972,159.398 364.590,159.966 365.195 C 160.964 366.255,164.000 366.562,164.000 365.603 C 164.000 365.433,165.350 365.167,167.000 365.013 C 168.650 364.858,170.000 364.588,170.000 364.412 C 170.000 364.236,170.990 363.968,172.200 363.817 C 173.410 363.666,174.400 363.375,174.400 363.171 C 174.400 362.967,174.940 362.800,175.600 362.800 C 176.260 362.800,176.800 362.641,176.800 362.446 C 176.800 362.251,177.790 361.968,179.000 361.817 C 180.210 361.666,181.200 361.375,181.200 361.171 C 181.200 360.967,181.407 360.800,181.660 360.800 C 182.235 360.800,184.800 358.192,184.800 357.607 C 184.800 357.369,185.051 357.079,185.357 356.961 C 185.686 356.835,186.026 355.855,186.186 354.574 C 186.335 353.378,186.625 352.400,186.829 352.400 C 187.033 352.400,187.200 352.040,187.200 351.600 C 187.200 351.160,187.360 350.800,187.555 350.800 C 187.751 350.800,188.034 350.144,188.184 349.343 C 188.335 348.541,188.715 347.628,189.029 347.314 C 189.404 346.939,189.600 345.870,189.600 344.205 C 189.600 342.530,189.770 341.610,190.100 341.500 C 190.495 341.368,190.624 331.441,190.717 294.067 C 190.781 268.070,190.983 246.800,191.164 246.800 C 191.346 246.800,191.595 246.054,191.717 245.142 C 191.839 244.231,192.109 243.376,192.316 243.242 C 192.523 243.109,192.827 242.567,192.993 242.038 C 193.441 240.604,195.156 239.200,196.458 239.200 C 197.086 239.200,197.600 239.020,197.600 238.800 C 197.600 238.580,198.230 238.400,199.000 238.400 C 200.940 238.400,201.907 239.498,202.243 242.084 C 202.394 243.248,202.716 244.328,202.959 244.485 C 203.275 244.690,203.432 258.674,203.512 293.985 C 203.574 321.053,203.772 343.200,203.952 343.200 C 204.133 343.200,204.398 344.855,204.541 346.877 C 204.685 348.899,204.957 350.654,205.146 350.777 C 205.334 350.900,205.615 351.855,205.769 352.900 C 205.923 353.945,206.194 354.800,206.372 354.800 C 206.550 354.800,206.794 355.409,206.915 356.154 C 207.168 357.712,209.491 360.257,211.008 360.638 C 211.553 360.775,212.000 361.027,212.000 361.199 C 212.000 361.371,212.620 361.627,213.377 361.769 C 214.219 361.927,214.847 362.318,214.992 362.774 C 215.122 363.185,215.672 363.632,216.214 363.768 C 216.756 363.904,217.200 364.192,217.200 364.408 C 217.200 364.623,217.430 364.800,217.711 364.800 C 217.992 364.800,218.530 365.160,218.907 365.600 C 219.526 366.323,220.087 366.400,224.707 366.400 C 229.327 366.400,229.888 366.323,230.507 365.600 C 230.884 365.160,231.464 364.800,231.796 364.800 C 232.128 364.800,232.400 364.634,232.400 364.432 C 232.400 364.229,232.940 363.945,233.600 363.800 C 234.260 363.655,234.800 363.371,234.800 363.168 C 234.800 362.966,235.160 362.800,235.600 362.800 C 236.040 362.800,236.400 362.643,236.400 362.451 C 236.400 362.259,237.120 361.987,238.000 361.846 C 238.880 361.706,239.600 361.413,239.600 361.195 C 239.600 360.978,239.856 360.800,240.169 360.800 C 240.885 360.800,243.200 358.518,243.200 357.812 C 243.200 357.522,243.470 357.182,243.800 357.055 C 244.232 356.890,244.400 356.214,244.400 354.646 C 244.400 353.258,244.582 352.406,244.900 352.300 C 245.297 352.168,245.422 334.406,245.510 265.667 C 245.575 213.753,245.766 179.200,245.985 179.200 C 246.186 179.200,246.472 178.390,246.621 177.400 C 246.769 176.410,247.027 175.600,247.194 175.600 C 247.361 175.600,247.613 174.880,247.754 174.000 C 247.894 173.120,248.187 172.400,248.405 172.400 C 248.622 172.400,248.800 172.211,248.800 171.981 C 248.800 171.394,250.803 169.600,251.458 169.600 C 251.756 169.600,252.000 169.428,252.000 169.218 C 252.000 169.008,252.630 168.718,253.400 168.574 C 254.170 168.429,254.800 168.164,254.800 167.984 C 254.800 167.805,255.790 167.534,257.000 167.383 C 258.210 167.232,259.200 166.960,259.200 166.778 C 259.200 166.597,260.010 166.328,261.000 166.179 C 261.990 166.031,262.800 165.773,262.800 165.606 C 262.800 165.439,263.520 165.187,264.400 165.046 C 265.280 164.906,266.000 164.635,266.000 164.445 C 266.000 164.255,266.536 163.993,267.192 163.862 C 267.941 163.712,269.326 162.662,270.919 161.037 C 272.314 159.615,273.937 158.331,274.527 158.183 C 275.117 158.034,275.600 157.755,275.600 157.561 C 275.600 157.368,276.309 157.096,277.175 156.958 C 278.042 156.819,278.846 156.457,278.963 156.153 C 279.079 155.849,279.451 155.600,279.787 155.600 C 280.124 155.600,280.400 155.423,280.400 155.208 C 280.400 154.992,280.850 154.702,281.400 154.564 C 281.950 154.426,282.400 154.061,282.400 153.753 C 282.400 153.444,282.760 152.884,283.200 152.507 C 283.640 152.130,284.000 151.675,284.000 151.494 C 284.000 150.853,287.078 147.600,287.685 147.600 C 287.918 147.600,288.525 147.150,289.035 146.600 C 289.545 146.050,290.150 145.600,290.381 145.600 C 290.611 145.600,290.800 145.349,290.800 145.043 C 290.800 144.736,291.070 144.382,291.400 144.255 C 291.730 144.129,292.000 143.827,292.000 143.584 C 292.000 143.341,292.270 142.873,292.600 142.543 C 292.930 142.213,293.200 141.596,293.200 141.171 C 293.200 140.747,293.366 140.400,293.568 140.400 C 293.771 140.400,294.055 139.860,294.200 139.200 C 294.345 138.540,294.629 138.000,294.832 138.000 C 295.034 138.000,295.200 137.695,295.200 137.323 C 295.200 136.950,296.280 135.621,297.600 134.369 C 298.920 133.117,300.000 131.891,300.000 131.646 C 300.000 131.401,300.157 131.200,300.349 131.200 C 300.541 131.200,300.813 130.480,300.954 129.600 C 301.094 128.720,301.376 128.000,301.580 128.000 C 301.784 128.000,302.072 127.190,302.221 126.200 C 302.369 125.210,302.637 124.400,302.817 124.400 C 302.996 124.400,303.266 123.410,303.417 122.200 C 303.568 120.990,303.837 120.000,304.014 120.000 C 304.191 120.000,304.455 119.460,304.600 118.800 C 304.745 118.140,305.010 117.600,305.188 117.600 C 305.367 117.600,305.630 117.135,305.773 116.566 C 305.916 115.997,306.463 115.133,306.989 114.646 C 307.514 114.158,308.067 113.274,308.216 112.680 C 308.365 112.086,308.630 111.600,308.804 111.600 C 308.979 111.600,309.247 110.520,309.400 109.200 C 309.553 107.880,309.818 106.800,309.988 106.800 C 310.158 106.800,310.425 105.496,310.582 103.903 C 310.739 102.309,311.077 100.876,311.334 100.717 C 311.983 100.317,311.997 80.497,311.349 80.086 C 311.101 79.929,310.770 79.035,310.614 78.100 C 310.458 77.165,310.188 76.400,310.015 76.400 C 309.842 76.400,309.595 75.873,309.466 75.229 C 309.241 74.105,306.755 71.200,306.017 71.200 C 305.822 71.200,305.153 70.695,304.531 70.077 C 303.909 69.459,303.085 68.835,302.700 68.689 C 302.315 68.544,302.000 68.252,302.000 68.040 C 302.000 67.827,301.631 67.537,301.180 67.394 C 300.728 67.250,299.822 66.608,299.166 65.967 C 298.100 64.924,297.700 64.800,295.420 64.800 C 294.015 64.800,292.807 64.624,292.733 64.408 C 292.543 63.849,286.672 63.783,286.487 64.338 C 286.406 64.581,285.453 64.898,284.370 65.042 C 283.286 65.185,282.400 65.439,282.400 65.605 C 282.400 65.772,281.410 66.032,280.200 66.183 C 278.990 66.334,278.000 66.625,278.000 66.829 C 278.000 67.033,277.793 67.200,277.540 67.200 C 277.288 67.200,276.483 67.785,275.752 68.500 C 275.021 69.215,273.877 70.306,273.211 70.925 C 272.545 71.544,272.000 72.290,272.000 72.582 C 272.000 72.875,271.730 73.218,271.400 73.345 C 271.070 73.471,270.800 73.851,270.800 74.187 C 270.800 74.524,270.620 74.800,270.400 74.800 C 270.180 74.800,270.000 75.120,270.000 75.511 C 270.000 75.902,269.640 76.530,269.200 76.907 C 268.760 77.284,268.400 77.845,268.400 78.153 C 268.400 78.462,268.130 78.818,267.800 78.945 C 267.470 79.071,267.200 79.451,267.200 79.787 C 267.200 80.124,267.034 80.400,266.832 80.400 C 266.629 80.400,266.345 80.940,266.200 81.600 C 266.055 82.260,265.799 82.800,265.631 82.800 C 265.463 82.800,265.207 85.805,265.062 89.477 C 264.917 93.149,264.646 96.254,264.459 96.377 C 264.273 96.500,263.995 98.130,263.844 100.000 C 263.692 101.870,263.395 103.460,263.184 103.533 C 262.973 103.607,262.800 103.922,262.800 104.233 C 262.800 104.545,262.640 104.800,262.443 104.800 C 262.247 104.800,261.966 105.279,261.819 105.865 C 261.672 106.451,260.303 108.167,258.776 109.679 C 257.249 111.190,256.000 112.621,256.000 112.857 C 256.000 113.425,251.813 117.600,251.243 117.600 C 251.000 117.600,250.800 117.777,250.800 117.992 C 250.800 118.208,250.350 118.498,249.800 118.636 C 249.250 118.774,248.800 119.047,248.800 119.243 C 248.800 119.440,248.528 119.600,248.196 119.600 C 247.864 119.600,247.284 119.960,246.907 120.400 C 246.530 120.840,246.069 121.200,245.883 121.200 C 245.401 121.200,244.400 122.261,244.400 122.771 C 244.400 123.007,244.170 123.200,243.889 123.200 C 243.608 123.200,243.070 123.560,242.693 124.000 C 242.316 124.440,241.736 124.800,241.404 124.800 C 241.072 124.800,240.800 124.980,240.800 125.200 C 240.800 125.420,240.545 125.600,240.233 125.600 C 239.922 125.600,239.607 125.777,239.533 125.993 C 239.460 126.209,237.285 126.507,234.700 126.654 C 232.115 126.801,230.000 127.074,230.000 127.261 C 230.000 127.447,214.430 127.600,195.400 127.600 C 176.370 127.600,160.800 127.447,160.800 127.261 C 160.800 127.074,158.685 126.801,156.100 126.654 C 153.515 126.507,151.340 126.209,151.267 125.993 C 151.193 125.777,150.878 125.600,150.567 125.600 C 150.255 125.600,150.000 125.420,150.000 125.200 C 150.000 124.980,149.728 124.800,149.396 124.800 C 149.064 124.800,148.484 124.440,148.107 124.000 C 147.730 123.560,147.192 123.200,146.911 123.200 C 146.630 123.200,146.400 123.007,146.400 122.771 C 146.400 122.261,145.399 121.200,144.917 121.200 C 144.731 121.200,144.270 120.840,143.893 120.400 C 143.516 119.960,142.936 119.600,142.604 119.600 C 142.272 119.600,142.000 119.420,142.000 119.200 C 142.000 118.980,141.796 118.800,141.547 118.800 C 141.297 118.800,140.207 117.900,139.124 116.800 C 138.042 115.700,136.994 114.800,136.796 114.800 C 136.598 114.800,136.318 114.170,136.174 113.400 C 136.029 112.630,135.751 112.000,135.555 112.000 C 135.360 112.000,135.200 111.724,135.200 111.387 C 135.200 111.051,134.930 110.671,134.600 110.545 C 134.270 110.418,134.000 110.090,134.000 109.816 C 134.000 109.101,132.278 107.342,131.263 107.020 C 130.790 106.870,130.295 106.322,130.165 105.802 C 130.034 105.283,129.674 104.761,129.364 104.641 C 129.054 104.522,128.800 104.164,128.800 103.846 C 128.800 103.527,128.625 103.207,128.411 103.133 C 128.197 103.060,127.900 101.650,127.750 100.000 C 127.601 98.350,127.318 96.894,127.121 96.765 C 126.924 96.635,126.654 94.610,126.521 92.265 C 126.388 89.919,126.146 88.000,125.983 88.000 C 125.821 88.000,125.618 86.618,125.532 84.930 C 125.434 82.988,125.198 81.799,124.889 81.696 C 124.620 81.607,124.400 81.368,124.400 81.166 C 124.400 80.964,123.712 80.124,122.872 79.300 C 122.031 78.475,121.227 77.485,121.084 77.100 C 120.942 76.715,120.639 76.400,120.413 76.400 C 120.186 76.400,120.000 76.034,120.000 75.587 C 120.000 75.141,119.746 74.678,119.436 74.559 C 119.126 74.439,118.754 73.869,118.608 73.291 C 118.463 72.713,117.907 71.835,117.372 71.339 C 116.838 70.844,116.400 70.250,116.400 70.019 C 116.400 69.789,116.211 69.600,115.981 69.600 C 115.750 69.600,115.137 69.141,114.617 68.581 C 114.094 68.016,113.033 67.458,112.236 67.328 C 111.446 67.200,110.800 66.950,110.800 66.772 C 110.800 66.594,109.990 66.328,109.000 66.179 C 108.010 66.031,107.200 65.770,107.200 65.599 C 107.200 65.429,106.583 65.173,105.829 65.032 C 105.075 64.890,104.400 64.624,104.329 64.440 C 104.146 63.965,102.711 63.630,102.000 63.896 " stroke="none" fill="#ffffff" fill-rule="evenodd"></path><path id="path2" d="M395.200 15.600 C 395.200 15.822,396.267 16.000,397.600 16.000 C 398.933 16.000,400.000 15.822,400.000 15.600 C 400.000 15.378,398.933 15.200,397.600 15.200 C 396.267 15.200,395.200 15.378,395.200 15.600 M396.300 385.089 C 397.015 385.178,398.185 385.178,398.900 385.089 C 399.615 385.001,399.030 384.928,397.600 384.928 C 396.170 384.928,395.585 385.001,396.300 385.089 M393.200 397.600 C 393.200 399.467,393.333 400.000,393.800 400.000 C 394.267 400.000,394.400 399.467,394.400 397.600 C 394.400 395.733,394.267 395.200,393.800 395.200 C 393.333 395.200,393.200 395.733,393.200 397.600 " stroke="none" fill="#555500" fill-rule="evenodd"></path><path id="path3" d="M5.600 2.800 L 5.600 5.600 2.800 5.600 L 0.000 5.600 0.000 200.400 L 0.000 395.200 2.800 395.200 L 5.600 395.200 5.600 397.600 L 5.600 400.000 199.400 400.000 L 393.200 400.000 393.200 397.600 C 393.200 395.733,393.333 395.200,393.800 395.200 C 394.173 395.200,394.400 394.822,394.400 394.200 C 394.400 393.650,394.580 393.200,394.800 393.200 C 395.041 393.200,395.200 391.533,395.200 389.000 L 395.200 384.800 397.600 384.800 L 400.000 384.800 400.000 200.400 L 400.000 16.000 397.600 16.000 L 395.200 16.000 395.200 12.000 C 395.200 9.800,395.040 8.000,394.843 8.000 C 394.647 8.000,394.379 7.572,394.248 7.048 C 393.946 5.844,393.055 5.612,388.700 5.605 L 385.200 5.600 385.200 2.800 L 385.200 0.000 195.400 0.000 L 5.600 0.000 5.600 2.800 M200.945 34.600 C 201.071 34.930,201.451 35.200,201.787 35.200 C 202.124 35.200,202.400 35.378,202.400 35.595 C 202.400 35.813,203.120 36.106,204.000 36.246 C 204.880 36.387,205.600 36.659,205.600 36.851 C 205.600 37.043,205.960 37.200,206.400 37.200 C 206.840 37.200,207.200 37.367,207.200 37.571 C 207.200 37.775,208.190 38.066,209.400 38.217 C 210.610 38.368,211.600 38.628,211.600 38.795 C 211.600 38.961,212.320 39.213,213.200 39.354 C 214.080 39.494,214.800 39.767,214.800 39.960 C 214.800 40.153,215.430 40.429,216.200 40.574 C 216.970 40.718,217.600 40.989,217.600 41.175 C 217.600 41.361,218.073 41.632,218.651 41.777 C 219.991 42.113,221.883 43.994,222.216 45.320 C 222.357 45.882,222.726 46.439,223.036 46.559 C 223.346 46.678,223.600 47.051,223.600 47.387 C 223.600 47.724,223.780 48.000,224.000 48.000 C 224.220 48.000,224.400 48.270,224.400 48.600 C 224.400 48.930,224.577 49.200,224.792 49.200 C 225.008 49.200,225.298 49.650,225.436 50.200 C 225.574 50.750,225.828 51.200,226.000 51.200 C 226.172 51.200,226.426 51.650,226.564 52.200 C 226.702 52.750,226.978 53.200,227.176 53.200 C 227.374 53.200,227.652 53.725,227.793 54.367 C 227.934 55.008,228.308 55.633,228.624 55.754 C 228.941 55.876,229.200 56.251,229.200 56.587 C 229.200 56.924,229.377 57.200,229.592 57.200 C 229.808 57.200,230.098 57.650,230.236 58.200 C 230.374 58.750,230.628 59.200,230.800 59.200 C 230.972 59.200,231.237 59.693,231.388 60.296 C 231.540 60.899,231.874 61.523,232.132 61.683 C 232.769 62.080,232.676 83.308,232.036 83.521 C 231.796 83.601,231.600 83.927,231.600 84.246 C 231.600 84.564,231.330 84.929,231.000 85.055 C 230.670 85.182,230.400 85.509,230.400 85.782 C 230.400 86.054,230.040 86.693,229.600 87.200 C 229.160 87.707,228.800 88.346,228.800 88.618 C 228.800 88.891,228.530 89.218,228.200 89.345 C 227.870 89.471,227.600 89.851,227.600 90.187 C 227.600 90.524,227.434 90.800,227.232 90.800 C 227.029 90.800,226.745 91.340,226.600 92.000 C 226.455 92.660,226.190 93.200,226.012 93.200 C 225.833 93.200,225.571 93.662,225.429 94.226 C 225.144 95.362,221.399 99.200,220.576 99.200 C 220.289 99.200,219.940 99.560,219.800 100.000 C 219.660 100.440,219.298 100.800,218.995 100.800 C 218.692 100.800,217.558 101.700,216.476 102.800 C 215.393 103.900,214.380 104.800,214.225 104.800 C 214.070 104.800,213.673 105.070,213.343 105.400 C 213.013 105.730,212.321 106.000,211.805 106.000 C 211.289 106.000,210.792 106.225,210.700 106.500 C 210.457 107.229,180.343 107.229,180.100 106.500 C 180.008 106.225,179.692 106.000,179.397 106.000 C 179.102 106.000,177.233 104.380,175.243 102.400 C 173.254 100.420,171.440 98.800,171.213 98.800 C 170.986 98.800,170.800 98.632,170.800 98.427 C 170.800 98.222,170.412 97.931,169.938 97.780 C 168.922 97.458,167.200 95.699,167.200 94.984 C 167.200 94.710,166.930 94.382,166.600 94.255 C 166.270 94.129,166.000 93.569,166.000 93.013 C 166.000 92.456,165.834 92.000,165.632 92.000 C 165.429 92.000,165.145 91.460,165.000 90.800 C 164.855 90.140,164.571 89.600,164.368 89.600 C 164.166 89.600,164.000 89.324,164.000 88.987 C 164.000 88.651,163.730 88.271,163.400 88.145 C 163.070 88.018,162.800 87.661,162.800 87.350 C 162.800 87.040,161.990 86.010,161.000 85.062 C 159.441 83.568,159.200 83.118,159.200 81.702 C 159.200 80.802,158.988 79.996,158.728 79.909 C 158.145 79.715,158.127 64.023,158.709 63.644 C 158.916 63.510,159.209 62.725,159.360 61.900 C 159.512 61.075,159.794 60.400,159.986 60.400 C 160.179 60.400,160.455 59.860,160.600 59.200 C 160.745 58.540,161.015 58.000,161.200 58.000 C 161.385 58.000,161.655 57.460,161.800 56.800 C 161.945 56.140,162.229 55.600,162.432 55.600 C 162.634 55.600,162.800 55.330,162.800 55.000 C 162.800 54.670,162.960 54.400,163.157 54.400 C 163.353 54.400,163.626 53.950,163.764 53.400 C 163.902 52.850,164.178 52.400,164.376 52.400 C 164.574 52.400,164.855 51.860,165.000 51.200 C 165.145 50.540,165.426 50.000,165.624 50.000 C 165.822 50.000,166.098 49.550,166.236 49.000 C 166.374 48.450,166.647 48.000,166.843 48.000 C 167.040 48.000,167.200 47.724,167.200 47.387 C 167.200 47.051,167.454 46.678,167.764 46.559 C 168.074 46.439,168.443 45.882,168.584 45.320 C 168.917 43.994,170.809 42.113,172.149 41.777 C 172.727 41.632,173.200 41.355,173.200 41.161 C 173.200 40.968,173.920 40.694,174.800 40.554 C 175.680 40.413,176.400 40.149,176.400 39.967 C 176.400 39.785,177.030 39.518,177.800 39.374 C 178.570 39.229,179.200 38.972,179.200 38.802 C 179.200 38.631,180.190 38.368,181.400 38.217 C 182.610 38.066,183.600 37.775,183.600 37.571 C 183.600 37.367,183.960 37.200,184.400 37.200 C 184.840 37.200,185.200 37.043,185.200 36.851 C 185.200 36.659,185.920 36.387,186.800 36.246 C 187.680 36.106,188.400 35.832,188.400 35.639 C 188.400 35.445,188.850 35.174,189.400 35.036 C 189.950 34.898,190.400 34.608,190.400 34.392 C 190.400 33.687,200.672 33.889,200.945 34.600 M104.329 64.440 C 104.400 64.624,105.075 64.890,105.829 65.032 C 106.583 65.173,107.200 65.429,107.200 65.599 C 107.200 65.770,108.010 66.031,109.000 66.179 C 109.990 66.328,110.800 66.594,110.800 66.772 C 110.800 66.950,111.446 67.200,112.236 67.328 C 113.033 67.458,114.094 68.016,114.617 68.581 C 115.137 69.141,115.750 69.600,115.981 69.600 C 116.211 69.600,116.400 69.789,116.400 70.019 C 116.400 70.250,116.838 70.844,117.372 71.339 C 117.907 71.835,118.463 72.713,118.608 73.291 C 118.754 73.869,119.126 74.439,119.436 74.559 C 119.746 74.678,120.000 75.141,120.000 75.587 C 120.000 76.034,120.186 76.400,120.413 76.400 C 120.639 76.400,120.942 76.715,121.084 77.100 C 121.227 77.485,122.031 78.475,122.872 79.300 C 123.712 80.124,124.400 80.964,124.400 81.166 C 124.400 81.368,124.620 81.607,124.889 81.696 C 125.198 81.799,125.434 82.988,125.532 84.930 C 125.618 86.618,125.821 88.000,125.983 88.000 C 126.146 88.000,126.388 89.919,126.521 92.265 C 126.654 94.610,126.924 96.635,127.121 96.765 C 127.318 96.894,127.601 98.350,127.750 100.000 C 127.900 101.650,128.197 103.060,128.411 103.133 C 128.625 103.207,128.800 103.527,128.800 103.846 C 128.800 104.164,129.054 104.522,129.364 104.641 C 129.674 104.761,130.034 105.283,130.165 105.802 C 130.295 106.322,130.790 106.870,131.263 107.020 C 132.278 107.342,134.000 109.101,134.000 109.816 C 134.000 110.090,134.270 110.418,134.600 110.545 C 134.930 110.671,135.200 111.051,135.200 111.387 C 135.200 111.724,135.360 112.000,135.555 112.000 C 135.751 112.000,136.029 112.630,136.174 113.400 C 136.318 114.170,136.598 114.800,136.796 114.800 C 136.994 114.800,138.042 115.700,139.124 116.800 C 140.207 117.900,141.297 118.800,141.547 118.800 C 141.796 118.800,142.000 118.980,142.000 119.200 C 142.000 119.420,142.272 119.600,142.604 119.600 C 142.936 119.600,143.516 119.960,143.893 120.400 C 144.270 120.840,144.731 121.200,144.917 121.200 C 145.399 121.200,146.400 122.261,146.400 122.771 C 146.400 123.007,146.630 123.200,146.911 123.200 C 147.192 123.200,147.730 123.560,148.107 124.000 C 148.484 124.440,149.064 124.800,149.396 124.800 C 149.728 124.800,150.000 124.980,150.000 125.200 C 150.000 125.420,150.255 125.600,150.567 125.600 C 150.878 125.600,151.193 125.777,151.267 125.993 C 151.340 126.209,153.515 126.507,156.100 126.654 C 158.685 126.801,160.800 127.074,160.800 127.261 C 160.800 127.447,176.370 127.600,195.400 127.600 C 214.430 127.600,230.000 127.447,230.000 127.261 C 230.000 127.074,232.115 126.801,234.700 126.654 C 237.285 126.507,239.460 126.209,239.533 125.993 C 239.607 125.777,239.922 125.600,240.233 125.600 C 240.545 125.600,240.800 125.420,240.800 125.200 C 240.800 124.980,241.072 124.800,241.404 124.800 C 241.736 124.800,242.316 124.440,242.693 124.000 C 243.070 123.560,243.608 123.200,243.889 123.200 C 244.170 123.200,244.400 123.007,244.400 122.771 C 244.400 122.261,245.401 121.200,245.883 121.200 C 246.069 121.200,246.530 120.840,246.907 120.400 C 247.284 119.960,247.864 119.600,248.196 119.600 C 248.528 119.600,248.800 119.440,248.800 119.243 C 248.800 119.047,249.250 118.774,249.800 118.636 C 250.350 118.498,250.800 118.208,250.800 117.992 C 250.800 117.777,251.000 117.600,251.243 117.600 C 251.813 117.600,256.000 113.425,256.000 112.857 C 256.000 112.621,257.249 111.190,258.776 109.679 C 260.303 108.167,261.672 106.451,261.819 105.865 C 261.966 105.279,262.247 104.800,262.443 104.800 C 262.640 104.800,262.800 104.545,262.800 104.233 C 262.800 103.922,262.973 103.607,263.184 103.533 C 263.395 103.460,263.692 101.870,263.844 100.000 C 263.995 98.130,264.273 96.500,264.459 96.377 C 264.646 96.254,264.917 93.149,265.062 89.477 C 265.207 85.805,265.463 82.800,265.631 82.800 C 265.799 82.800,266.055 82.260,266.200 81.600 C 266.345 80.940,266.629 80.400,266.832 80.400 C 267.034 80.400,267.200 80.124,267.200 79.787 C 267.200 79.451,267.470 79.071,267.800 78.945 C 268.130 78.818,268.400 78.462,268.400 78.153 C 268.400 77.845,268.760 77.284,269.200 76.907 C 269.640 76.530,270.000 75.902,270.000 75.511 C 270.000 75.120,270.180 74.800,270.400 74.800 C 270.620 74.800,270.800 74.524,270.800 74.187 C 270.800 73.851,271.070 73.471,271.400 73.345 C 271.730 73.218,272.000 72.875,272.000 72.582 C 272.000 72.290,272.545 71.544,273.211 70.925 C 273.877 70.306,275.021 69.215,275.752 68.500 C 276.483 67.785,277.288 67.200,277.540 67.200 C 277.793 67.200,278.000 67.033,278.000 66.829 C 278.000 66.625,278.990 66.334,280.200 66.183 C 281.410 66.032,282.400 65.772,282.400 65.605 C 282.400 65.439,283.286 65.185,284.370 65.042 C 285.453 64.898,286.406 64.581,286.487 64.338 C 286.672 63.783,292.543 63.849,292.733 64.408 C 292.807 64.624,294.015 64.800,295.420 64.800 C 297.700 64.800,298.100 64.924,299.166 65.967 C 299.822 66.608,300.728 67.250,301.180 67.394 C 301.631 67.537,302.000 67.827,302.000 68.040 C 302.000 68.252,302.315 68.544,302.700 68.689 C 303.085 68.835,303.909 69.459,304.531 70.077 C 305.153 70.695,305.822 71.200,306.017 71.200 C 306.755 71.200,309.241 74.105,309.466 75.229 C 309.595 75.873,309.842 76.400,310.015 76.400 C 310.188 76.400,310.458 77.165,310.614 78.100 C 310.770 79.035,311.101 79.929,311.349 80.086 C 311.997 80.497,311.983 100.317,311.334 100.717 C 311.077 100.876,310.739 102.309,310.582 103.903 C 310.425 105.496,310.158 106.800,309.988 106.800 C 309.818 106.800,309.553 107.880,309.400 109.200 C 309.247 110.520,308.979 111.600,308.804 111.600 C 308.630 111.600,308.365 112.086,308.216 112.680 C 308.067 113.274,307.514 114.158,306.989 114.646 C 306.463 115.133,305.916 115.997,305.773 116.566 C 305.630 117.135,305.367 117.600,305.188 117.600 C 305.010 117.600,304.745 118.140,304.600 118.800 C 304.455 119.460,304.191 120.000,304.014 120.000 C 303.837 120.000,303.568 120.990,303.417 122.200 C 303.266 123.410,302.996 124.400,302.817 124.400 C 302.637 124.400,302.369 125.210,302.221 126.200 C 302.072 127.190,301.784 128.000,301.580 128.000 C 301.376 128.000,301.094 128.720,300.954 129.600 C 300.813 130.480,300.541 131.200,300.349 131.200 C 300.157 131.200,300.000 131.401,300.000 131.646 C 300.000 131.891,298.920 133.117,297.600 134.369 C 296.280 135.621,295.200 136.950,295.200 137.323 C 295.200 137.695,295.034 138.000,294.832 138.000 C 294.629 138.000,294.345 138.540,294.200 139.200 C 294.055 139.860,293.771 140.400,293.568 140.400 C 293.366 140.400,293.200 140.747,293.200 141.171 C 293.200 141.596,292.930 142.213,292.600 142.543 C 292.270 142.873,292.000 143.341,292.000 143.584 C 292.000 143.827,291.730 144.129,291.400 144.255 C 291.070 144.382,290.800 144.736,290.800 145.043 C 290.800 145.349,290.611 145.600,290.381 145.600 C 290.150 145.600,289.545 146.050,289.035 146.600 C 288.525 147.150,287.918 147.600,287.685 147.600 C 287.078 147.600,284.000 150.853,284.000 151.494 C 284.000 151.675,283.640 152.130,283.200 152.507 C 282.760 152.884,282.400 153.444,282.400 153.753 C 282.400 154.061,281.950 154.426,281.400 154.564 C 280.850 154.702,280.400 154.992,280.400 155.208 C 280.400 155.423,280.124 155.600,279.787 155.600 C 279.451 155.600,279.079 155.849,278.963 156.153 C 278.846 156.457,278.042 156.819,277.175 156.958 C 276.309 157.096,275.600 157.368,275.600 157.561 C 275.600 157.755,275.117 158.034,274.527 158.183 C 273.937 158.331,272.314 159.615,270.919 161.037 C 269.326 162.662,267.941 163.712,267.192 163.862 C 266.536 163.993,266.000 164.255,266.000 164.445 C 266.000 164.635,265.280 164.906,264.400 165.046 C 263.520 165.187,262.800 165.439,262.800 165.606 C 262.800 165.773,261.990 166.031,261.000 166.179 C 260.010 166.328,259.200 166.597,259.200 166.778 C 259.200 166.960,258.210 167.232,257.000 167.383 C 255.790 167.534,254.800 167.805,254.800 167.984 C 254.800 168.164,254.170 168.429,253.400 168.574 C 252.630 168.718,252.000 169.008,252.000 169.218 C 252.000 169.428,251.756 169.600,251.458 169.600 C 250.803 169.600,248.800 171.394,248.800 171.981 C 248.800 172.211,248.622 172.400,248.405 172.400 C 248.187 172.400,247.894 173.120,247.754 174.000 C 247.613 174.880,247.361 175.600,247.194 175.600 C 247.027 175.600,246.769 176.410,246.621 177.400 C 246.472 178.390,246.186 179.200,245.985 179.200 C 245.766 179.200,245.575 213.753,245.510 265.667 C 245.422 334.406,245.297 352.168,244.900 352.300 C 244.582 352.406,244.400 353.258,244.400 354.646 C 244.400 356.214,244.232 356.890,243.800 357.055 C 243.470 357.182,243.200 357.522,243.200 357.812 C 243.200 358.518,240.885 360.800,240.169 360.800 C 239.856 360.800,239.600 360.978,239.600 361.195 C 239.600 361.413,238.880 361.706,238.000 361.846 C 237.120 361.987,236.400 362.259,236.400 362.451 C 236.400 362.643,236.040 362.800,235.600 362.800 C 235.160 362.800,234.800 362.966,234.800 363.168 C 234.800 363.371,234.260 363.655,233.600 363.800 C 232.940 363.945,232.400 364.229,232.400 364.432 C 232.400 364.634,232.128 364.800,231.796 364.800 C 231.464 364.800,230.884 365.160,230.507 365.600 C 229.888 366.323,229.327 366.400,224.707 366.400 C 220.087 366.400,219.526 366.323,218.907 365.600 C 218.530 365.160,217.992 364.800,217.711 364.800 C 217.430 364.800,217.200 364.623,217.200 364.408 C 217.200 364.192,216.756 363.904,216.214 363.768 C 215.672 363.632,215.122 363.185,214.992 362.774 C 214.847 362.318,214.219 361.927,213.377 361.769 C 212.620 361.627,212.000 361.371,212.000 361.199 C 212.000 361.027,211.553 360.775,211.008 360.638 C 209.491 360.257,207.168 357.712,206.915 356.154 C 206.794 355.409,206.550 354.800,206.372 354.800 C 206.194 354.800,205.923 353.945,205.769 352.900 C 205.615 351.855,205.334 350.900,205.146 350.777 C 204.957 350.654,204.685 348.899,204.541 346.877 C 204.398 344.855,204.133 343.200,203.952 343.200 C 203.772 343.200,203.574 321.053,203.512 293.985 C 203.432 258.674,203.275 244.690,202.959 244.485 C 202.716 244.328,202.394 243.248,202.243 242.084 C 201.907 239.498,200.940 238.400,199.000 238.400 C 198.230 238.400,197.600 238.580,197.600 238.800 C 197.600 239.020,197.086 239.200,196.458 239.200 C 195.156 239.200,193.441 240.604,192.993 242.038 C 192.827 242.567,192.523 243.109,192.316 243.242 C 192.109 243.376,191.839 244.231,191.717 245.142 C 191.595 246.054,191.346 246.800,191.164 246.800 C 190.983 246.800,190.781 268.070,190.717 294.067 C 190.624 331.441,190.495 341.368,190.100 341.500 C 189.770 341.610,189.600 342.530,189.600 344.205 C 189.600 345.870,189.404 346.939,189.029 347.314 C 188.715 347.628,188.335 348.541,188.184 349.343 C 188.034 350.144,187.751 350.800,187.555 350.800 C 187.360 350.800,187.200 351.160,187.200 351.600 C 187.200 352.040,187.033 352.400,186.829 352.400 C 186.625 352.400,186.335 353.378,186.186 354.574 C 186.026 355.855,185.686 356.835,185.357 356.961 C 185.051 357.079,184.800 357.369,184.800 357.607 C 184.800 358.192,182.235 360.800,181.660 360.800 C 181.407 360.800,181.200 360.967,181.200 361.171 C 181.200 361.375,180.210 361.666,179.000 361.817 C 177.790 361.968,176.800 362.251,176.800 362.446 C 176.800 362.641,176.260 362.800,175.600 362.800 C 174.940 362.800,174.400 362.967,174.400 363.171 C 174.400 363.375,173.410 363.666,172.200 363.817 C 170.990 363.968,170.000 364.236,170.000 364.412 C 170.000 364.588,168.650 364.858,167.000 365.013 C 165.350 365.167,164.000 365.433,164.000 365.603 C 164.000 366.562,160.964 366.255,159.966 365.195 C 159.398 364.590,158.543 363.972,158.066 363.821 C 157.590 363.670,157.200 363.378,157.200 363.173 C 157.200 362.968,156.930 362.800,156.600 362.800 C 156.270 362.800,156.000 362.634,156.000 362.432 C 156.000 362.229,155.460 361.945,154.800 361.800 C 154.140 361.655,153.600 361.371,153.600 361.168 C 153.600 360.966,153.253 360.800,152.829 360.800 C 152.404 360.800,151.787 360.530,151.457 360.200 C 151.127 359.870,150.704 359.600,150.517 359.600 C 150.097 359.600,148.800 358.119,148.800 357.638 C 148.800 357.444,148.530 357.182,148.200 357.055 C 147.849 356.921,147.600 356.321,147.600 355.613 C 147.600 354.946,147.443 354.400,147.252 354.400 C 147.060 354.400,146.778 353.458,146.625 352.308 C 146.473 351.157,146.135 350.083,145.874 349.922 C 145.512 349.698,145.375 329.561,145.295 264.415 C 145.230 212.544,145.044 179.200,144.819 179.200 C 144.616 179.200,144.328 178.390,144.179 177.400 C 144.031 176.410,143.773 175.600,143.606 175.600 C 143.439 175.600,143.187 174.880,143.046 174.000 C 142.906 173.120,142.613 172.400,142.395 172.400 C 142.178 172.400,142.000 172.200,142.000 171.956 C 142.000 171.342,140.310 169.615,139.700 169.607 C 139.425 169.603,139.200 169.434,139.200 169.232 C 139.200 169.029,138.615 168.737,137.900 168.582 C 137.185 168.426,136.491 168.128,136.358 167.919 C 136.224 167.710,135.369 167.439,134.458 167.317 C 133.546 167.195,132.800 166.945,132.800 166.761 C 132.800 166.578,131.900 166.308,130.800 166.162 C 129.700 166.016,128.800 165.742,128.800 165.553 C 128.800 165.364,128.080 165.094,127.200 164.954 C 126.320 164.813,125.600 164.560,125.600 164.392 C 125.600 164.224,125.150 163.974,124.600 163.836 C 124.050 163.698,123.600 163.408,123.600 163.192 C 123.600 162.977,123.420 162.800,123.200 162.800 C 122.979 162.800,122.100 162.080,121.246 161.200 C 120.392 160.320,119.533 159.600,119.336 159.600 C 119.139 159.600,118.670 159.240,118.293 158.800 C 117.916 158.360,117.336 158.000,117.004 158.000 C 116.672 158.000,116.400 157.834,116.400 157.632 C 116.400 157.429,115.860 157.145,115.200 157.000 C 114.540 156.855,114.000 156.590,114.000 156.412 C 114.000 156.233,113.526 155.968,112.948 155.823 C 111.673 155.503,108.626 152.541,108.204 151.212 C 107.857 150.119,104.340 146.400,103.653 146.400 C 103.404 146.400,103.200 146.220,103.200 146.000 C 103.200 145.780,102.952 145.600,102.648 145.600 C 102.010 145.600,98.800 142.597,98.800 142.000 C 98.800 141.780,98.634 141.600,98.432 141.600 C 98.229 141.600,97.945 141.060,97.800 140.400 C 97.655 139.740,97.385 139.200,97.200 139.200 C 97.015 139.200,96.739 138.633,96.587 137.939 C 96.434 137.246,95.880 136.280,95.355 135.793 C 94.830 135.306,94.400 134.767,94.400 134.595 C 94.400 134.422,93.770 133.669,93.000 132.921 C 92.230 132.173,91.600 131.319,91.600 131.024 C 91.600 130.728,91.330 130.382,91.000 130.255 C 90.670 130.129,90.400 129.749,90.400 129.413 C 90.400 129.076,90.222 128.800,90.005 128.800 C 89.787 128.800,89.494 128.080,89.354 127.200 C 89.213 126.320,88.943 125.600,88.754 125.600 C 88.564 125.600,88.294 124.880,88.154 124.000 C 88.013 123.120,87.741 122.400,87.549 122.400 C 87.357 122.400,87.200 121.770,87.200 121.000 C 87.200 120.230,87.033 119.600,86.829 119.600 C 86.625 119.600,86.334 118.610,86.183 117.400 C 86.032 116.190,85.763 115.200,85.586 115.200 C 85.409 115.200,85.145 114.660,85.000 114.000 C 84.855 113.340,84.594 112.800,84.419 112.800 C 84.245 112.800,83.987 112.080,83.846 111.200 C 83.706 110.320,83.427 109.600,83.227 109.600 C 83.027 109.600,82.737 109.015,82.582 108.300 C 82.426 107.585,82.136 106.895,81.936 106.768 C 81.735 106.640,81.460 105.830,81.324 104.968 C 81.188 104.105,80.900 103.284,80.684 103.143 C 80.146 102.790,80.157 83.200,80.696 82.857 C 80.918 82.716,81.226 82.015,81.382 81.300 C 81.537 80.585,81.815 80.000,82.000 80.000 C 82.185 80.000,82.455 79.460,82.600 78.800 C 82.745 78.140,83.021 77.600,83.214 77.600 C 83.406 77.600,83.682 76.970,83.826 76.200 C 83.971 75.430,84.229 74.800,84.401 74.800 C 84.573 74.800,84.832 74.329,84.976 73.752 C 85.121 73.176,85.694 72.321,86.251 71.852 C 86.807 71.384,87.851 70.415,88.571 69.700 C 89.292 68.985,90.088 68.400,90.340 68.400 C 90.593 68.400,90.800 68.223,90.800 68.008 C 90.800 67.792,91.250 67.502,91.800 67.364 C 92.350 67.226,92.800 66.959,92.800 66.770 C 92.800 66.582,93.700 66.308,94.800 66.162 C 95.900 66.016,96.800 65.765,96.800 65.604 C 96.800 65.443,97.731 65.201,98.870 65.066 C 100.008 64.931,101.043 64.663,101.170 64.471 C 101.727 63.622,104.005 63.600,104.329 64.440 " stroke="none" fill="#a6dd73" fill-rule="evenodd"></path><path id="path4" d="M394.000 6.213 C 394.000 6.536,394.270 6.800,394.600 6.800 C 394.930 6.800,395.200 6.639,395.200 6.443 C 395.200 6.246,394.930 5.982,394.600 5.855 C 394.235 5.715,394.000 5.855,394.000 6.213 " stroke="none" fill="#00ff00" fill-rule="evenodd"></path></g></svg>